:SAMPLES-PER-SECOND 30
:FULLY-SPECIFIED
:DEGREES
557
root  12.1695 37.3291 8.47486 22.5895 84.4813 28.3811
RightUpLeg  -22.5239 -6.94931 -7.27878
RightLeg  15.1852 3.05137 0.508752
RightFoot  8.60852 -0.348307 2.31459
RightToes  4.6566e-010 0 -3.6325e-017
Spine  7.001 -1.74077 3.00282
Spine1  10.192 -1.06761 -2.30214
HEad  -18.9398 6.08977 -5.64381
LeftShoulder1  -0.212469 4.05352 -32.5271
LeftArm  5.21655 -3.67929 -43.6841
LeftForeArm  15.4069 -18.2205 -5.73034
LeftHand  -0.0625234 2.9556 2.29901
RightShoulder  -0.671608 -5.37332 29.2159
RightArm  11.7299 -4.67028 46.9023
RightForeArm  14.9206 8.01146 6.51943
RightHand  -0.365435 4.69608 -4.51405
LeftUpLeg  20.0653 -0.539073 -0.869633
LeftLeg  18.5415 -4.73158 -1.32102
LeftFoot  -23.8107 -0.0617918 -1.84691
LeftToes  -4.59298e-010 2.08438e-011 -1.27151e-011
558
root  13.6966 37.1504 9.00119 -1.20657 84.1756 4.70981
RightUpLeg  -23.1999 -6.13557 -4.66536
RightLeg  21.4444 3.28811 1.25502
RightFoot  6.85931 -0.0868639 0.813287
RightToes  4.6566e-010 0 -3.6325e-017
Spine  7.32398 -1.88838 6.97294
Spine1  9.98055 -0.57529 -3.49234
HEad  -19.1659 7.13965 -6.09461
LeftShoulder1  -0.191004 3.99892 -32.4552
LeftArm  5.90204 -1.07165 -43.388
LeftForeArm  16.2299 -19.0274 -5.34706
LeftHand  -0.0691379 2.6602 2.41305
RightShoulder  -0.68219 -5.3851 29.5437
RightArm  11.3369 -3.98523 46.3577
RightForeArm  13.6302 7.3714 6.4131
RightHand  -0.367738 3.3438 -5.09012
LeftUpLeg  20.6802 -0.858605 2.05049
LeftLeg  23.0691 -5.0362 -2.04109
LeftFoot  -22.7034 -0.422778 -5.68396
LeftToes  -4.59298e-010 2.08438e-011 -1.27151e-011
559
root  15.0834 37.0919 9.51899 -15.5984 83.9027 -10.1608
RightUpLeg  -23.4117 -7.80949 -2.33535
RightLeg  25.5969 4.53846 2.12619
RightFoot  4.22335 0.167015 -0.994756
RightToes  4.6566e-010 0 -3.6325e-017
Spine  7.23932 -2.21511 8.82411
Spine1  9.84292 -0.785852 -2.43341
HEad  -18.5821 7.94598 -5.95873
LeftShoulder1  -0.177315 3.96477 -32.3312
LeftArm  5.93065 2.20868 -43.2343
LeftForeArm  16.4219 -19.5214 -5.09524
LeftHand  -0.0587521 3.24919 2.28056
RightShoulder  -0.595282 -5.16487 29.0739
RightArm  11.119 -3.18549 46.4934
RightForeArm  12.2115 6.8262 6.41673
RightHand  -0.458662 4.58056 -5.57614
LeftUpLeg  18.2735 -1.15529 4.49916
LeftLeg  30.4629 -5.20127 -2.9624
LeftFoot  -18.1291 -0.485115 -10.3026
LeftToes  -4.59298e-010 2.08438e-011 -1.27151e-011
560
root  16.3368 37.1428 10.0507 -30.0163 84.6022 -24.9445
RightUpLeg  -22.5035 -8.31634 -0.830935
RightLeg  28.0718 3.5784 1.829
RightFoot  0.77335 0.151266 -1.3692
RightToes  4.6566e-010 0 -3.6325e-017
Spine  7.54151 -2.63157 9.60741
Spine1  9.47612 -1.31235 -0.704345
HEad  -17.5465 8.2221 -5.79838
LeftShoulder1  -0.145552 3.88588 -31.9855
LeftArm  6.23249 4.08344 -43.3784
LeftForeArm  17.9198 -18.932 -5.35823
LeftHand  -0.0379765 3.33627 1.20945
RightShoulder  -0.688178 -5.41615 29.2932
RightArm  11.2194 -2.21193 45.8508
RightForeArm  14.4763 8.06474 6.27745
RightHand  -0.267575 3.29207 -3.84126
LeftUpLeg  13.1325 -2.0418 6.64683
LeftLeg  40.5135 -4.04173 -3.26405
LeftFoot  -7.95218 0.386665 -12.167
LeftToes  -4.59298e-010 2.08438e-011 -1.27151e-011
561
root  17.5278 37.2565 10.5448 -46.8682 84.8697 -42.3112
RightUpLeg  -21.2669 -7.82161 0.651418
RightLeg  29.2651 1.96157 0.944651
RightFoot  -1.90887 0.12331 -1.64984
RightToes  4.6566e-010 0 -3.6325e-017
Spine  7.2741 -2.68854 10.9116
Spine1  9.6586 -1.34761 0.00750279
HEad  -17.7323 7.68989 -5.05651
LeftShoulder1  -0.159621 3.92101 -32.1191
LeftArm  6.32995 4.55776 -43.2521
LeftForeArm  20.1709 -18.1507 -5.71171
LeftHand  -0.0328284 3.11561 0.832275
RightShoulder  -0.721693 -5.51361 29.2341
RightArm  11.7703 -1.17342 45.5811
RightForeArm  12.4865 9.4354 6.30455
RightHand  -0.292343 3.19002 -4.18629
LeftUpLeg  6.46775 -2.90367 8.16385
LeftLeg  50.5548 -1.51154 -1.4853
LeftFoot  5.13268 1.26112 -9.29729
LeftToes  -4.59298e-010 2.08438e-011 -1.27151e-011
